%FSLAX24Y24*%
%MOIN*%
%SFA1B1*%

%IPPOS*%
%ADD20C,0.012000*%
%ADD21C,0.010000*%
%ADD22C,0.008000*%
%ADD23C,0.007900*%
%LNpcb1-1*%
%LPD*%
G54D20*
X13076Y13767D02*
X13276D01*
X14026D02*
X14226D01*
X13076Y13317D02*
Y13767D01*
X14226Y13317D02*
Y13767D01*
X14726Y11567D02*
X14926D01*
X15676D02*
X15876D01*
X14726Y11117D02*
Y11567D01*
X15876Y11117D02*
Y11567D01*
X14726Y13767D02*
X14926D01*
X15676D02*
X15876D01*
X14726Y13317D02*
Y13767D01*
X15876Y13317D02*
Y13767D01*
X13076Y11567D02*
X13276D01*
X14026D02*
X14226D01*
X13076Y11117D02*
Y11567D01*
X14226Y11117D02*
Y11567D01*
G54D21*
X16570Y10051D02*
Y15228D01*
X20349*
Y10051D02*
Y15228D01*
X16570Y10051D02*
X20349D01*
X18400Y15000D02*
X18200D01*
X18300*
Y14500*
X18200Y14400*
X18100*
X18000Y14500*
X19000Y14400D02*
X18600D01*
X19000Y14800*
Y14900*
X18900Y15000*
X18700*
X18600Y14900*
G54D22*
X11635Y13315D02*
X12565D01*
X11635Y13985D02*
X12565D01*
X12235Y10485D02*
Y11415D01*
X11565Y10485D02*
Y11415D01*
X10517Y14900D02*
X10383D01*
X10450*
Y14567*
X10383Y14500*
X10317*
X10250Y14567*
X10650Y14500D02*
X10783D01*
X10717*
Y14900*
X10650Y14833*
X13100Y14600D02*
Y14200D01*
X13300*
X13367Y14267*
Y14533*
X13300Y14600*
X13100*
X13500Y14200D02*
X13633D01*
X13567*
Y14600*
X13500Y14533*
X14750Y14600D02*
Y14200D01*
X14950*
X15017Y14267*
Y14533*
X14950Y14600*
X14750*
X15416Y14200D02*
X15150D01*
X15416Y14467*
Y14533*
X15350Y14600*
X15217*
X15150Y14533*
X14700Y12450D02*
Y12050D01*
X14900*
X14967Y12117*
Y12383*
X14900Y12450*
X14700*
X15100Y12383D02*
X15167Y12450D01*
X15300*
X15366Y12383*
Y12317*
X15300Y12250*
X15233*
X15300*
X15366Y12183*
Y12117*
X15300Y12050*
X15167*
X15100Y12117*
X13050Y12450D02*
Y12050D01*
X13250*
X13317Y12117*
Y12383*
X13250Y12450*
X13050*
X13650Y12050D02*
Y12450D01*
X13450Y12250*
X13716*
X11650Y14200D02*
Y14600D01*
X11850*
X11917Y14533*
Y14400*
X11850Y14333*
X11650*
X11783D02*
X11917Y14200D01*
X12050D02*
X12183D01*
X12117*
Y14600*
X12050Y14533*
X11550Y11800D02*
Y12200D01*
X11750*
X11817Y12133*
Y12000*
X11750Y11933*
X11550*
X11683D02*
X11817Y11800D01*
X12216D02*
X11950D01*
X12216Y12067*
Y12133*
X12150Y12200*
X12017*
X11950Y12133*
G54D23*
X10100Y14300D02*
X11100D01*
Y10300D02*
Y14300D01*
X10100Y10300D02*
Y14300D01*
Y10300D02*
X11100D01*
M02*