%FSLAX24Y24*%
%MOIN*%
%SFA1B1*%

%IPPOS*%
%ADD21C,0.010000*%
%LNpcb1-1*%
%LPD*%
G54D21*
X18534Y14283D02*
X18600Y14350D01*
X18733*
X18800Y14283*
Y14017*
X18733Y13950*
X18600*
X18534Y14017*
Y14150*
X18667*
X18400Y13950D02*
Y14350D01*
X18134Y13950*
Y14350*
X18000D02*
Y13950D01*
X17800*
X17734Y14017*
Y14283*
X17800Y14350*
X18000*
X18534Y12783D02*
X18600Y12850D01*
X18733*
X18800Y12783*
Y12517*
X18733Y12450*
X18600*
X18534Y12517*
Y12650*
X18667*
X18400Y12450D02*
Y12850D01*
X18134Y12450*
Y12850*
X18000D02*
Y12450D01*
X17800*
X17734Y12517*
Y12783*
X17800Y12850*
X18000*
X19200Y11350D02*
Y10950D01*
X19000*
X18933Y11017*
Y11283*
X19000Y11350*
X19200*
X18800Y10950D02*
Y11217D01*
X18667Y11350*
X18534Y11217*
Y10950*
Y11150*
X18800*
X18400Y11350D02*
X18134D01*
X18267*
Y10950*
X18000D02*
Y11217D01*
X17867Y11350*
X17734Y11217*
Y10950*
Y11150*
X18000*
X11850Y10900D02*
X11583D01*
X11717*
Y10500*
X11450Y10900D02*
X11184Y10500D01*
Y10900D02*
X11450Y10500D01*
X11850Y11500D02*
Y11900D01*
X11650*
X11583Y11833*
Y11700*
X11650Y11633*
X11850*
X11717D02*
X11583Y11500D01*
X11450Y11900D02*
X11184Y11500D01*
Y11900D02*
X11450Y11500D01*
X11983Y12833D02*
X12050Y12900D01*
X12183*
X12250Y12833*
Y12567*
X12183Y12500*
X12050*
X11983Y12567*
Y12700*
X12117*
X11850Y12500D02*
Y12900D01*
X11583Y12500*
Y12900*
X11450D02*
Y12500D01*
X11250*
X11184Y12567*
Y12833*
X11250Y12900*
X11450*
X11983Y13500D02*
X12250D01*
X11983Y13767*
Y13833*
X12050Y13900*
X12183*
X12250Y13833*
X11650Y13500D02*
Y13900D01*
X11850Y13700*
X11583*
X11450Y13900D02*
Y13633D01*
X11317Y13500*
X11184Y13633*
Y13900*
M02*