%FSLAX24Y24*%
%MOIN*%
%SFA1B1*%

%IPPOS*%
%AMD10*
4,1,8,0.008800,0.027500,-0.008800,0.027500,-0.017700,0.018600,-0.017700,-0.018600,-0.008800,-0.027500,0.008800,-0.027500,0.017700,-0.018600,0.017700,0.018600,0.008800,0.027500,0.0*
1,1,0.017800,0.008800,0.018600*
1,1,0.017800,-0.008800,0.018600*
1,1,0.017800,-0.008800,-0.018600*
1,1,0.017800,0.008800,-0.018600*
%
%AMD11*
4,1,8,0.009900,0.027500,-0.009900,0.027500,-0.019700,0.017700,-0.019700,-0.017700,-0.009900,-0.027500,0.009900,-0.027500,0.019700,-0.017700,0.019700,0.017700,0.009900,0.027500,0.0*
1,1,0.019600,0.009900,0.017700*
1,1,0.019600,-0.009900,0.017700*
1,1,0.019600,-0.009900,-0.017700*
1,1,0.019600,0.009900,-0.017700*
%
%AMD12*
4,1,8,0.015000,0.017700,-0.015000,0.017700,-0.016700,0.016000,-0.016700,-0.016000,-0.015000,-0.017700,0.015000,-0.017700,0.016700,-0.016000,0.016700,0.016000,0.015000,0.017700,0.0*
1,1,0.003400,0.015000,0.016000*
1,1,0.003400,-0.015000,0.016000*
1,1,0.003400,-0.015000,-0.016000*
1,1,0.003400,0.015000,-0.016000*
%
%AMD13*
4,1,8,-0.017700,0.015000,-0.017700,-0.015000,-0.016000,-0.016700,0.016000,-0.016700,0.017700,-0.015000,0.017700,0.015000,0.016000,0.016700,-0.016000,0.016700,-0.017700,0.015000,0.0*
1,1,0.003400,-0.016000,0.015000*
1,1,0.003400,-0.016000,-0.015000*
1,1,0.003400,0.016000,-0.015000*
1,1,0.003400,0.016000,0.015000*
%
G04~CAMADD=10~8~0.0~0.0~354.0~551.0~89.0~0.0~15~0.0~0.0~0.0~0.0~0~0.0~0.0~0.0~0.0~0~0.0~0.0~0.0~0.0~354.0~551.0*
%ADD10D10*%
G04~CAMADD=11~8~0.0~0.0~394.0~551.0~98.0~0.0~15~0.0~0.0~0.0~0.0~0~0.0~0.0~0.0~0.0~0~0.0~0.0~0.0~0.0~394.0~551.0*
%ADD11D11*%
G04~CAMADD=12~8~0.0~0.0~335.0~354.0~17.0~0.0~15~0.0~0.0~0.0~0.0~0~0.0~0.0~0.0~0.0~0~0.0~0.0~0.0~0.0~335.0~354.0*
%ADD12D12*%
G04~CAMADD=13~8~0.0~0.0~335.0~354.0~17.0~0.0~15~0.0~0.0~0.0~0.0~0~0.0~0.0~0.0~0.0~0~0.0~0.0~0.0~90.0~354.0~334.0*
%ADD13D13*%
%ADD14C,0.025000*%
%ADD15C,0.005000*%
%ADD16C,0.078700*%
%ADD17R,0.078700X0.078700*%
%ADD18R,0.059100X0.059100*%
%ADD19C,0.059100*%
%LNpcb1-1*%
%LPD*%
G36*
X18100Y15150D02*
Y10135D01*
X18065Y10100*
X10100*
Y15115*
X10135Y15150*
X18100*
G37*
%LNpcb1-2*%
%LPC*%
G36*
X11850Y11554D02*
X11740D01*
X11694Y11545*
X11655Y11519*
X11630Y11481*
X11621Y11435*
Y11335*
X11850*
Y11554*
G37*
G36*
X12060D02*
X11950D01*
Y11335*
X12179*
Y11435*
X12170Y11481*
X12145Y11519*
X12106Y11545*
X12060Y11554*
G37*
G36*
X13600Y11533D02*
X13369D01*
Y11396*
X13384Y11322*
X13425Y11260*
X13488Y11218*
X13561Y11204*
X13600*
Y11533*
G37*
G36*
X13931D02*
X13700D01*
Y11204*
X13739*
X13812Y11218*
X13875Y11260*
X13916Y11322*
X13931Y11396*
Y11533*
G37*
G36*
X13600Y11962D02*
X13561D01*
X13488Y11948*
X13425Y11906*
X13384Y11844*
X13369Y11770*
Y11633*
X13600*
Y11962*
G37*
G36*
X13739D02*
X13700D01*
Y11633*
X13931*
Y11770*
X13916Y11844*
X13875Y11906*
X13812Y11948*
X13739Y11962*
G37*
G36*
X10550Y11750D02*
X10208D01*
X10215Y11697*
X10255Y11601*
X10318Y11518*
X10401Y11455*
X10497Y11415*
X10550Y11408*
Y11750*
G37*
G36*
X10992D02*
X10650D01*
Y11408*
X10703Y11415*
X10799Y11455*
X10882Y11518*
X10945Y11601*
X10985Y11697*
X10992Y11750*
G37*
G36*
X12179Y11235D02*
X11950D01*
Y11015*
X12060*
X12106Y11024*
X12145Y11050*
X12170Y11089*
X12179Y11134*
Y11235*
G37*
G36*
X14876Y10667D02*
X14625D01*
Y10540*
X14641Y10462*
X14684Y10397*
X14750Y10353*
X14828Y10337*
X14876*
Y10667*
G37*
G36*
X15227D02*
X14976D01*
Y10337*
X15024*
X15102Y10353*
X15167Y10397*
X15211Y10462*
X15227Y10540*
Y10667*
G37*
G36*
X10995Y11195D02*
X10205D01*
Y10405*
X10695*
X10697Y10403*
X10785Y10386*
X11652*
X11655Y10381*
X11694Y10355*
X11740Y10346*
X12060*
X12106Y10355*
X12145Y10381*
X12148Y10386*
X13051*
X13100Y10353*
X13178Y10337*
X13374*
X13452Y10353*
X13517Y10397*
X13561Y10462*
X13577Y10540*
Y10894*
X13561Y10972*
X13517Y11037*
X13452Y11081*
X13374Y11096*
X13178*
X13100Y11081*
X13034Y11037*
X12991Y10972*
X12975Y10894*
Y10845*
X12148*
X12145Y10850*
X12106Y10876*
X12060Y10885*
X11740*
X11694Y10876*
X11655Y10850*
X11652Y10845*
X10995*
Y11195*
G37*
G36*
X14122Y11096D02*
X13926D01*
X13848Y11081*
X13783Y11037*
X13739Y10972*
X13723Y10894*
Y10540*
X13739Y10462*
X13783Y10397*
X13848Y10353*
X13926Y10337*
X14122*
X14200Y10353*
X14266Y10397*
X14309Y10462*
X14325Y10540*
Y10894*
X14309Y10972*
X14266Y11037*
X14200Y11081*
X14122Y11096*
G37*
G36*
X15024D02*
X14976D01*
Y10767*
X15227*
Y10894*
X15211Y10972*
X15167Y11037*
X15102Y11081*
X15024Y11096*
G37*
G36*
X11850Y11235D02*
X11621D01*
Y11134*
X11630Y11089*
X11655Y11050*
X11694Y11024*
X11740Y11015*
X11850*
Y11235*
G37*
G36*
X15772Y11096D02*
X15576D01*
X15498Y11081*
X15433Y11037*
X15389Y10972*
X15373Y10894*
Y10540*
X15389Y10462*
X15433Y10397*
X15498Y10353*
X15576Y10337*
X15772*
X15850Y10353*
X15915Y10397*
X15959Y10462*
X15975Y10540*
Y10894*
X15959Y10972*
X15915Y11037*
X15850Y11081*
X15772Y11096*
G37*
G36*
X14876D02*
X14828D01*
X14750Y11081*
X14684Y11037*
X14641Y10972*
X14625Y10894*
Y10767*
X14876*
Y11096*
G37*
G36*
X10550Y12192D02*
X10497Y12185D01*
X10401Y12145*
X10318Y12082*
X10255Y11999*
X10215Y11903*
X10208Y11850*
X10550*
Y12192*
G37*
G36*
X13374Y13296D02*
X13178D01*
X13100Y13281*
X13034Y13237*
X12991Y13172*
X12986Y13146*
X12917*
X12829Y13129*
X12755Y13079*
X12705Y13029*
X10922*
X10882Y13082*
X10799Y13145*
X10703Y13185*
X10600Y13199*
X10497Y13185*
X10401Y13145*
X10318Y13082*
X10255Y12999*
X10215Y12903*
X10201Y12800*
X10215Y12697*
X10255Y12601*
X10318Y12518*
X10401Y12455*
X10497Y12415*
X10600Y12401*
X10703Y12415*
X10799Y12455*
X10882Y12518*
X10922Y12571*
X12800*
X12888Y12588*
X12962Y12638*
X13017Y12622*
X13034Y12597*
X13100Y12553*
X13178Y12537*
X13374*
X13452Y12553*
X13517Y12597*
X13561Y12662*
X13577Y12740*
Y13094*
X13561Y13172*
X13517Y13237*
X13452Y13281*
X13374Y13296*
G37*
G36*
X10600Y14199D02*
X10497Y14185D01*
X10401Y14145*
X10318Y14082*
X10255Y13999*
X10215Y13903*
X10201Y13800*
X10215Y13697*
X10255Y13601*
X10318Y13518*
X10401Y13455*
X10497Y13415*
X10600Y13401*
X10703Y13415*
X10799Y13455*
X10882Y13518*
X10922Y13571*
X11105*
X11188Y13488*
X11262Y13438*
X11350Y13421*
X11520*
X11531Y13405*
X11569Y13380*
X11615Y13371*
X11916*
X11961Y13380*
X12000Y13405*
X12026Y13444*
X12035Y13490*
Y13810*
X12026Y13856*
X12000Y13895*
X11961Y13920*
X11916Y13929*
X11615*
X11569Y13920*
X11531Y13895*
X11520Y13879*
X11445*
X11362Y13962*
X11288Y14012*
X11200Y14029*
X10922*
X10882Y14082*
X10799Y14145*
X10703Y14185*
X10600Y14199*
G37*
G36*
X14876Y13296D02*
X14828D01*
X14750Y13281*
X14684Y13237*
X14641Y13172*
X14625Y13094*
Y12967*
X14876*
Y13296*
G37*
G36*
X15024D02*
X14976D01*
Y12967*
X15227*
Y13094*
X15211Y13172*
X15167Y13237*
X15102Y13281*
X15024Y13296*
G37*
G36*
X17100Y14074D02*
X16659D01*
X16669Y13995*
X16719Y13875*
X16798Y13772*
X16901Y13692*
X17022Y13643*
X17100Y13632*
Y14074*
G37*
G36*
Y14615D02*
X17022Y14605D01*
X16901Y14555*
X16798Y14476*
X16719Y14373*
X16669Y14253*
X16659Y14174*
X17100*
Y14615*
G37*
G36*
X17200D02*
Y14174D01*
X17642*
X17631Y14253*
X17582Y14373*
X17503Y14476*
X17399Y14555*
X17279Y14605*
X17200Y14615*
G37*
G36*
X17642Y14074D02*
X17200D01*
Y13632*
X17279Y13643*
X17399Y13692*
X17503Y13772*
X17582Y13875*
X17631Y13995*
X17642Y14074*
G37*
G36*
X15389Y14162D02*
X15211D01*
X15138Y14148*
X15075Y14106*
X15034Y14044*
X15028Y14012*
X13922*
X13916Y14044*
X13875Y14106*
X13812Y14148*
X13739Y14162*
X13561*
X13488Y14148*
X13425Y14106*
X13384Y14044*
X13378Y14012*
X13233*
X13145Y13995*
X13071Y13945*
X13005Y13879*
X12680*
X12669Y13895*
X12631Y13920*
X12585Y13929*
X12284*
X12239Y13920*
X12200Y13895*
X12174Y13856*
X12165Y13810*
Y13490*
X12174Y13444*
X12200Y13405*
X12239Y13380*
X12284Y13371*
X12585*
X12631Y13380*
X12669Y13405*
X12680Y13421*
X13100*
X13188Y13438*
X13262Y13488*
X13328Y13554*
X13378*
X13384Y13522*
X13425Y13460*
X13488Y13418*
X13561Y13404*
X13739*
X13812Y13418*
X13875Y13460*
X13916Y13522*
X13922Y13554*
X15028*
X15034Y13522*
X15075Y13460*
X15138Y13418*
X15211Y13404*
X15389*
X15462Y13418*
X15525Y13460*
X15566Y13522*
X15576Y13571*
X15655*
X16121Y13105*
Y12050*
X16138Y11962*
X16188Y11888*
X16388Y11688*
X16462Y11638*
X16550Y11621*
X16608*
X16657Y11617*
Y11403*
X16321*
X15979Y11745*
X15905Y11795*
X15817Y11812*
X15572*
X15566Y11844*
X15525Y11906*
X15462Y11948*
X15389Y11962*
X15211*
X15138Y11948*
X15075Y11906*
X15034Y11844*
X15019Y11770*
Y11396*
X15034Y11322*
X15075Y11260*
X15138Y11218*
X15211Y11204*
X15389*
X15462Y11218*
X15525Y11260*
X15566Y11322*
X15572Y11354*
X15722*
X16064Y11011*
X16139Y10962*
X16226Y10944*
X16657*
Y10630*
X17644*
Y11617*
X17380*
Y11750*
X17362Y11837*
X17313Y11912*
X17212Y12012*
X17138Y12062*
X17050Y12079*
X16645*
X16579Y12145*
Y13200*
X16562Y13288*
X16512Y13362*
X15912Y13962*
X15838Y14012*
X15750Y14029*
X15569*
X15566Y14044*
X15525Y14106*
X15462Y14148*
X15389Y14162*
G37*
G36*
X17642Y12574D02*
X17200D01*
Y12132*
X17279Y12143*
X17399Y12192*
X17503Y12272*
X17582Y12375*
X17631Y12495*
X17642Y12574*
G37*
G36*
X14122Y13296D02*
X13926D01*
X13848Y13281*
X13783Y13237*
X13739Y13172*
X13723Y13094*
Y12740*
X13739Y12662*
X13783Y12597*
X13848Y12553*
X13926Y12537*
X14122*
X14200Y12553*
X14266Y12597*
X14309Y12662*
X14325Y12740*
Y13094*
X14309Y13172*
X14266Y13237*
X14200Y13281*
X14122Y13296*
G37*
G36*
X10650Y12192D02*
Y11850D01*
X10992*
X10985Y11903*
X10945Y11999*
X10882Y12082*
X10799Y12145*
X10703Y12185*
X10650Y12192*
G37*
G36*
X17100Y12574D02*
X16659D01*
X16669Y12495*
X16719Y12375*
X16798Y12272*
X16901Y12192*
X17022Y12143*
X17100Y12132*
Y12574*
G37*
G36*
X14876Y12867D02*
X14625D01*
Y12740*
X14641Y12662*
X14684Y12597*
X14750Y12553*
X14828Y12537*
X14876*
Y12867*
G37*
G36*
X17100Y13115D02*
X17022Y13105D01*
X16901Y13055*
X16798Y12976*
X16719Y12873*
X16669Y12752*
X16659Y12674*
X17100*
Y13115*
G37*
G36*
X17200D02*
Y12674D01*
X17642*
X17631Y12752*
X17582Y12873*
X17503Y12976*
X17399Y13055*
X17279Y13105*
X17200Y13115*
G37*
G36*
X15227Y12867D02*
X14976D01*
Y12537*
X15024*
X15102Y12553*
X15167Y12597*
X15211Y12662*
X15227Y12740*
Y12867*
G37*
G36*
X15772Y13296D02*
X15576D01*
X15498Y13281*
X15433Y13237*
X15389Y13172*
X15373Y13094*
Y12740*
X15389Y12662*
X15433Y12597*
X15498Y12553*
X15576Y12537*
X15772*
X15850Y12553*
X15915Y12597*
X15959Y12662*
X15975Y12740*
Y13094*
X15959Y13172*
X15915Y13237*
X15850Y13281*
X15772Y13296*
G37*
%LNpcb1-3*%
%LPD*%
G54D10*
X13650Y13783D03*
X15300Y11583D03*
Y13783D03*
X13650Y11583D03*
G54D11*
X14024Y12917D03*
X13276D03*
X15674Y10717D03*
X14926D03*
X15674Y12917D03*
X14926D03*
X14024Y10717D03*
X13276D03*
G54D12*
X11765Y13650D03*
X12435D03*
G54D13*
X11900Y10615D03*
Y11285D03*
G54D14*
X17050Y11850D02*
X17150Y11750D01*
X16550Y11850D02*
X17050D01*
X16350Y12050D02*
X16550Y11850D01*
X16226Y11174D02*
X17150D01*
Y11750*
Y11124D02*
Y11174D01*
X15750Y13800D02*
X16350Y13200D01*
Y12050D02*
Y13200D01*
X15317Y13800D02*
X15750D01*
X15300Y13783D02*
X15317Y13800D01*
X10600Y10800D02*
X10785Y10615D01*
X11900*
X13174*
X13276Y10717*
X15300Y11583D02*
X15817D01*
X16226Y11174*
X10600Y12800D02*
X12800D01*
X12917Y12917*
X13276*
X10600Y13800D02*
X11200D01*
X11350Y13650*
X11765*
X12435D02*
X13100D01*
X13233Y13783*
X13650*
X15300*
G54D15*
X18800Y10250D02*
X19000D01*
Y10350*
X18967Y10383*
X18833*
X18800Y10350*
Y10250*
X18867Y10483D02*
Y10550D01*
X18900Y10583*
X19000*
Y10483*
X18967Y10450*
X18933Y10483*
Y10583*
X19000Y10650D02*
Y10717D01*
Y10683*
X18800*
Y10650*
X19000Y10916D02*
Y10850D01*
X18967Y10816*
X18900*
X18867Y10850*
Y10916*
X18900Y10950*
X18933*
Y10816*
X19000Y11216D02*
X18800D01*
X18867Y11283*
X18800Y11350*
X19000*
X18867Y11450D02*
Y11516D01*
X18900Y11550*
X19000*
Y11450*
X18967Y11416*
X18933Y11450*
Y11550*
X18833Y11650D02*
X18867D01*
Y11616*
Y11683*
Y11650*
X18967*
X19000Y11683*
X18833Y11816D02*
X18867D01*
Y11783*
Y11849*
Y11816*
X18967*
X19000Y11849*
X18800Y11949D02*
X19000D01*
X18900*
X18867Y11983*
Y12049*
X18900Y12083*
X19000*
Y12249D02*
Y12183D01*
X18967Y12149*
X18900*
X18867Y12183*
Y12249*
X18900Y12283*
X18933*
Y12149*
X18867Y12349D02*
X18967D01*
X19000Y12383*
X18967Y12416*
X19000Y12449*
X18967Y12483*
X18867*
X19000Y12549D02*
Y12649D01*
X18967Y12683*
X18933Y12649*
Y12583*
X18900Y12549*
X18867Y12583*
Y12683*
X19000Y13082D02*
Y12949D01*
X18867Y13082*
X18833*
X18800Y13049*
Y12982*
X18833Y12949*
Y13149D02*
X18800Y13182D01*
Y13249*
X18833Y13282*
X18967*
X19000Y13249*
Y13182*
X18967Y13149*
X18833*
X19000Y13349D02*
Y13416D01*
Y13382*
X18800*
X18833Y13349*
X18800Y13649D02*
Y13516D01*
X18900*
X18867Y13582*
Y13616*
X18900Y13649*
X18967*
X19000Y13616*
Y13549*
X18967Y13516*
G54D16*
X17150Y12624D03*
Y14124D03*
G54D17*
X17150Y11124D03*
G54D18*
X10600Y10800D03*
G54D19*
X10600Y11800D03*
Y12800D03*
Y13800D03*
M02*