G04 Layer_Color=8388736*
%FSLAX24Y24*%
%MOIN*%
G70*
G01*
G75*
G04:AMPARAMS|DCode=24|XSize=43.4mil|YSize=63.1mil|CornerRadius=12.9mil|HoleSize=0mil|Usage=FLASHONLY|Rotation=0.000|XOffset=0mil|YOffset=0mil|HoleType=Round|Shape=RoundedRectangle|*
%AMROUNDEDRECTD24*
21,1,0.0434,0.0374,0,0,0.0*
21,1,0.0177,0.0631,0,0,0.0*
1,1,0.0257,0.0089,-0.0187*
1,1,0.0257,-0.0089,-0.0187*
1,1,0.0257,-0.0089,0.0187*
1,1,0.0257,0.0089,0.0187*
%
%ADD24ROUNDEDRECTD24*%
G04:AMPARAMS|DCode=25|XSize=47.4mil|YSize=63.1mil|CornerRadius=13.8mil|HoleSize=0mil|Usage=FLASHONLY|Rotation=0.000|XOffset=0mil|YOffset=0mil|HoleType=Round|Shape=RoundedRectangle|*
%AMROUNDEDRECTD25*
21,1,0.0474,0.0354,0,0,0.0*
21,1,0.0197,0.0631,0,0,0.0*
1,1,0.0277,0.0098,-0.0177*
1,1,0.0277,-0.0098,-0.0177*
1,1,0.0277,-0.0098,0.0177*
1,1,0.0277,0.0098,0.0177*
%
%ADD25ROUNDEDRECTD25*%
G04:AMPARAMS|DCode=26|XSize=41.5mil|YSize=43.4mil|CornerRadius=5.7mil|HoleSize=0mil|Usage=FLASHONLY|Rotation=0.000|XOffset=0mil|YOffset=0mil|HoleType=Round|Shape=RoundedRectangle|*
%AMROUNDEDRECTD26*
21,1,0.0415,0.0321,0,0,0.0*
21,1,0.0301,0.0434,0,0,0.0*
1,1,0.0113,0.0151,-0.0160*
1,1,0.0113,-0.0151,-0.0160*
1,1,0.0113,-0.0151,0.0160*
1,1,0.0113,0.0151,0.0160*
%
%ADD26ROUNDEDRECTD26*%
G04:AMPARAMS|DCode=27|XSize=41.5mil|YSize=43.4mil|CornerRadius=5.7mil|HoleSize=0mil|Usage=FLASHONLY|Rotation=90.000|XOffset=0mil|YOffset=0mil|HoleType=Round|Shape=RoundedRectangle|*
%AMROUNDEDRECTD27*
21,1,0.0415,0.0321,0,0,90.0*
21,1,0.0301,0.0434,0,0,90.0*
1,1,0.0113,0.0160,0.0151*
1,1,0.0113,0.0160,-0.0151*
1,1,0.0113,-0.0160,-0.0151*
1,1,0.0113,-0.0160,0.0151*
%
%ADD27ROUNDEDRECTD27*%
%ADD28C,0.0867*%
%ADD29R,0.0867X0.0867*%
%ADD30R,0.0671X0.0671*%
%ADD31C,0.0671*%
D24*
X13650Y13783D02*
D03*
X15300Y11583D02*
D03*
Y13783D02*
D03*
X13650Y11583D02*
D03*
D25*
X14024Y12917D02*
D03*
X13276D02*
D03*
X15674Y10717D02*
D03*
X14926D02*
D03*
X15674Y12917D02*
D03*
X14926D02*
D03*
X14024Y10717D02*
D03*
X13276D02*
D03*
D26*
X11765Y13650D02*
D03*
X12435D02*
D03*
D27*
X11900Y10615D02*
D03*
Y11285D02*
D03*
D28*
X17150Y12624D02*
D03*
Y14124D02*
D03*
D29*
Y11124D02*
D03*
D30*
X10600Y10800D02*
D03*
D31*
Y11800D02*
D03*
Y12800D02*
D03*
Y13800D02*
D03*
M02*
