G04 Layer_Color=32896*
%FSLAX24Y24*%
%MOIN*%
G70*
G01*
G75*
%ADD21C,0.0100*%
D21*
X18534Y14283D02*
X18600Y14350D01*
X18733D01*
X18800Y14283D01*
Y14017D01*
X18733Y13950D01*
X18600D01*
X18534Y14017D01*
Y14150D01*
X18667D01*
X18400Y13950D02*
Y14350D01*
X18134Y13950D01*
Y14350D01*
X18000D02*
Y13950D01*
X17800D01*
X17734Y14017D01*
Y14283D01*
X17800Y14350D01*
X18000D01*
X18534Y12783D02*
X18600Y12850D01*
X18733D01*
X18800Y12783D01*
Y12517D01*
X18733Y12450D01*
X18600D01*
X18534Y12517D01*
Y12650D01*
X18667D01*
X18400Y12450D02*
Y12850D01*
X18134Y12450D01*
Y12850D01*
X18000D02*
Y12450D01*
X17800D01*
X17734Y12517D01*
Y12783D01*
X17800Y12850D01*
X18000D01*
X19200Y11350D02*
Y10950D01*
X19000D01*
X18933Y11017D01*
Y11283D01*
X19000Y11350D01*
X19200D01*
X18800Y10950D02*
Y11217D01*
X18667Y11350D01*
X18534Y11217D01*
Y10950D01*
Y11150D01*
X18800D01*
X18400Y11350D02*
X18134D01*
X18267D01*
Y10950D01*
X18000D02*
Y11217D01*
X17867Y11350D01*
X17734Y11217D01*
Y10950D01*
Y11150D01*
X18000D01*
X11850Y10900D02*
X11583D01*
X11717D01*
Y10500D01*
X11450Y10900D02*
X11184Y10500D01*
Y10900D02*
X11450Y10500D01*
X11850Y11500D02*
Y11900D01*
X11650D01*
X11583Y11833D01*
Y11700D01*
X11650Y11633D01*
X11850D01*
X11717D02*
X11583Y11500D01*
X11450Y11900D02*
X11184Y11500D01*
Y11900D02*
X11450Y11500D01*
X11983Y12833D02*
X12050Y12900D01*
X12183D01*
X12250Y12833D01*
Y12567D01*
X12183Y12500D01*
X12050D01*
X11983Y12567D01*
Y12700D01*
X12117D01*
X11850Y12500D02*
Y12900D01*
X11583Y12500D01*
Y12900D01*
X11450D02*
Y12500D01*
X11250D01*
X11184Y12567D01*
Y12833D01*
X11250Y12900D01*
X11450D01*
X11983Y13500D02*
X12250D01*
X11983Y13767D01*
Y13833D01*
X12050Y13900D01*
X12183D01*
X12250Y13833D01*
X11650Y13500D02*
Y13900D01*
X11850Y13700D01*
X11583D01*
X11450Y13900D02*
Y13633D01*
X11317Y13500D01*
X11184Y13633D01*
Y13900D01*
M02*
