G04 Layer_Color=65535*
%FSLAX24Y24*%
%MOIN*%
G70*
G01*
G75*
%ADD20C,0.0120*%
%ADD21C,0.0100*%
%ADD22C,0.0080*%
%ADD23C,0.0079*%
D20*
X13076Y13767D02*
X13276D01*
X14026D02*
X14226D01*
X13076Y13317D02*
Y13767D01*
X14226Y13317D02*
Y13767D01*
X14726Y11567D02*
X14926D01*
X15676D02*
X15876D01*
X14726Y11117D02*
Y11567D01*
X15876Y11117D02*
Y11567D01*
X14726Y13767D02*
X14926D01*
X15676D02*
X15876D01*
X14726Y13317D02*
Y13767D01*
X15876Y13317D02*
Y13767D01*
X13076Y11567D02*
X13276D01*
X14026D02*
X14226D01*
X13076Y11117D02*
Y11567D01*
X14226Y11117D02*
Y11567D01*
D21*
X16570Y10051D02*
Y15228D01*
X20349D01*
Y10051D02*
Y15228D01*
X16570Y10051D02*
X20349D01*
X18400Y15000D02*
X18200D01*
X18300D01*
Y14500D01*
X18200Y14400D01*
X18100D01*
X18000Y14500D01*
X19000Y14400D02*
X18600D01*
X19000Y14800D01*
Y14900D01*
X18900Y15000D01*
X18700D01*
X18600Y14900D01*
D22*
X11635Y13315D02*
X12565D01*
X11635Y13985D02*
X12565D01*
X12235Y10485D02*
Y11415D01*
X11565Y10485D02*
Y11415D01*
X10517Y14900D02*
X10383D01*
X10450D01*
Y14567D01*
X10383Y14500D01*
X10317D01*
X10250Y14567D01*
X10650Y14500D02*
X10783D01*
X10717D01*
Y14900D01*
X10650Y14833D01*
X13100Y14600D02*
Y14200D01*
X13300D01*
X13367Y14267D01*
Y14533D01*
X13300Y14600D01*
X13100D01*
X13500Y14200D02*
X13633D01*
X13567D01*
Y14600D01*
X13500Y14533D01*
X14750Y14600D02*
Y14200D01*
X14950D01*
X15017Y14267D01*
Y14533D01*
X14950Y14600D01*
X14750D01*
X15416Y14200D02*
X15150D01*
X15416Y14467D01*
Y14533D01*
X15350Y14600D01*
X15217D01*
X15150Y14533D01*
X14700Y12450D02*
Y12050D01*
X14900D01*
X14967Y12117D01*
Y12383D01*
X14900Y12450D01*
X14700D01*
X15100Y12383D02*
X15167Y12450D01*
X15300D01*
X15366Y12383D01*
Y12317D01*
X15300Y12250D01*
X15233D01*
X15300D01*
X15366Y12183D01*
Y12117D01*
X15300Y12050D01*
X15167D01*
X15100Y12117D01*
X13050Y12450D02*
Y12050D01*
X13250D01*
X13317Y12117D01*
Y12383D01*
X13250Y12450D01*
X13050D01*
X13650Y12050D02*
Y12450D01*
X13450Y12250D01*
X13716D01*
X11650Y14200D02*
Y14600D01*
X11850D01*
X11917Y14533D01*
Y14400D01*
X11850Y14333D01*
X11650D01*
X11783D02*
X11917Y14200D01*
X12050D02*
X12183D01*
X12117D01*
Y14600D01*
X12050Y14533D01*
X11550Y11800D02*
Y12200D01*
X11750D01*
X11817Y12133D01*
Y12000D01*
X11750Y11933D01*
X11550D01*
X11683D02*
X11817Y11800D01*
X12216D02*
X11950D01*
X12216Y12067D01*
Y12133D01*
X12150Y12200D01*
X12017D01*
X11950Y12133D01*
D23*
X10100Y14300D02*
X11100D01*
Y10300D02*
Y14300D01*
X10100Y10300D02*
Y14300D01*
Y10300D02*
X11100D01*
M02*
