G04 Layer_Physical_Order=1*
G04 Layer_Color=255*
%FSLAX24Y24*%
%MOIN*%
G70*
G01*
G75*
G04:AMPARAMS|DCode=10|XSize=35.4mil|YSize=55.1mil|CornerRadius=8.9mil|HoleSize=0mil|Usage=FLASHONLY|Rotation=0.000|XOffset=0mil|YOffset=0mil|HoleType=Round|Shape=RoundedRectangle|*
%AMROUNDEDRECTD10*
21,1,0.0354,0.0374,0,0,0.0*
21,1,0.0177,0.0551,0,0,0.0*
1,1,0.0177,0.0089,-0.0187*
1,1,0.0177,-0.0089,-0.0187*
1,1,0.0177,-0.0089,0.0187*
1,1,0.0177,0.0089,0.0187*
%
%ADD10ROUNDEDRECTD10*%
G04:AMPARAMS|DCode=11|XSize=39.4mil|YSize=55.1mil|CornerRadius=9.8mil|HoleSize=0mil|Usage=FLASHONLY|Rotation=0.000|XOffset=0mil|YOffset=0mil|HoleType=Round|Shape=RoundedRectangle|*
%AMROUNDEDRECTD11*
21,1,0.0394,0.0354,0,0,0.0*
21,1,0.0197,0.0551,0,0,0.0*
1,1,0.0197,0.0098,-0.0177*
1,1,0.0197,-0.0098,-0.0177*
1,1,0.0197,-0.0098,0.0177*
1,1,0.0197,0.0098,0.0177*
%
%ADD11ROUNDEDRECTD11*%
G04:AMPARAMS|DCode=12|XSize=33.5mil|YSize=35.4mil|CornerRadius=1.7mil|HoleSize=0mil|Usage=FLASHONLY|Rotation=0.000|XOffset=0mil|YOffset=0mil|HoleType=Round|Shape=RoundedRectangle|*
%AMROUNDEDRECTD12*
21,1,0.0335,0.0321,0,0,0.0*
21,1,0.0301,0.0354,0,0,0.0*
1,1,0.0033,0.0151,-0.0160*
1,1,0.0033,-0.0151,-0.0160*
1,1,0.0033,-0.0151,0.0160*
1,1,0.0033,0.0151,0.0160*
%
%ADD12ROUNDEDRECTD12*%
G04:AMPARAMS|DCode=13|XSize=33.5mil|YSize=35.4mil|CornerRadius=1.7mil|HoleSize=0mil|Usage=FLASHONLY|Rotation=90.000|XOffset=0mil|YOffset=0mil|HoleType=Round|Shape=RoundedRectangle|*
%AMROUNDEDRECTD13*
21,1,0.0335,0.0321,0,0,90.0*
21,1,0.0301,0.0354,0,0,90.0*
1,1,0.0033,0.0160,0.0151*
1,1,0.0033,0.0160,-0.0151*
1,1,0.0033,-0.0160,-0.0151*
1,1,0.0033,-0.0160,0.0151*
%
%ADD13ROUNDEDRECTD13*%
%ADD14C,0.0250*%
%ADD15C,0.0050*%
%ADD16C,0.0787*%
%ADD17R,0.0787X0.0787*%
%ADD18R,0.0591X0.0591*%
%ADD19C,0.0591*%
G36*
X18100Y15150D02*
X18100Y10135D01*
X18065Y10100D01*
X10100Y10100D01*
Y15115D01*
X10135Y15150D01*
X18100Y15150D01*
D02*
G37*
%LPC*%
G36*
X11850Y11554D02*
X11740D01*
X11694Y11545D01*
X11655Y11519D01*
X11630Y11481D01*
X11621Y11435D01*
Y11335D01*
X11850D01*
Y11554D01*
D02*
G37*
G36*
X12060D02*
X11950D01*
Y11335D01*
X12179D01*
Y11435D01*
X12170Y11481D01*
X12145Y11519D01*
X12106Y11545D01*
X12060Y11554D01*
D02*
G37*
G36*
X13600Y11533D02*
X13369D01*
Y11396D01*
X13384Y11322D01*
X13425Y11260D01*
X13488Y11218D01*
X13561Y11204D01*
X13600D01*
Y11533D01*
D02*
G37*
G36*
X13931D02*
X13700D01*
Y11204D01*
X13739D01*
X13812Y11218D01*
X13875Y11260D01*
X13916Y11322D01*
X13931Y11396D01*
Y11533D01*
D02*
G37*
G36*
X13600Y11962D02*
X13561D01*
X13488Y11948D01*
X13425Y11906D01*
X13384Y11844D01*
X13369Y11770D01*
Y11633D01*
X13600D01*
Y11962D01*
D02*
G37*
G36*
X13739D02*
X13700D01*
Y11633D01*
X13931D01*
Y11770D01*
X13916Y11844D01*
X13875Y11906D01*
X13812Y11948D01*
X13739Y11962D01*
D02*
G37*
G36*
X10550Y11750D02*
X10208D01*
X10215Y11697D01*
X10255Y11601D01*
X10318Y11518D01*
X10401Y11455D01*
X10497Y11415D01*
X10550Y11408D01*
Y11750D01*
D02*
G37*
G36*
X10992D02*
X10650D01*
Y11408D01*
X10703Y11415D01*
X10799Y11455D01*
X10882Y11518D01*
X10945Y11601D01*
X10985Y11697D01*
X10992Y11750D01*
D02*
G37*
G36*
X12179Y11235D02*
X11950D01*
Y11015D01*
X12060D01*
X12106Y11024D01*
X12145Y11050D01*
X12170Y11089D01*
X12179Y11134D01*
Y11235D01*
D02*
G37*
G36*
X14876Y10667D02*
X14625D01*
Y10540D01*
X14641Y10462D01*
X14684Y10397D01*
X14750Y10353D01*
X14828Y10337D01*
X14876D01*
Y10667D01*
D02*
G37*
G36*
X15227D02*
X14976D01*
Y10337D01*
X15024D01*
X15102Y10353D01*
X15167Y10397D01*
X15211Y10462D01*
X15227Y10540D01*
Y10667D01*
D02*
G37*
G36*
X10995Y11195D02*
X10205D01*
Y10405D01*
X10695D01*
X10697Y10403D01*
X10785Y10386D01*
X11652D01*
X11655Y10381D01*
X11694Y10355D01*
X11740Y10346D01*
X12060D01*
X12106Y10355D01*
X12145Y10381D01*
X12148Y10386D01*
X13051D01*
X13100Y10353D01*
X13178Y10337D01*
X13374D01*
X13452Y10353D01*
X13517Y10397D01*
X13561Y10462D01*
X13577Y10540D01*
Y10894D01*
X13561Y10972D01*
X13517Y11037D01*
X13452Y11081D01*
X13374Y11096D01*
X13178D01*
X13100Y11081D01*
X13034Y11037D01*
X12991Y10972D01*
X12975Y10894D01*
Y10845D01*
X12148D01*
X12145Y10850D01*
X12106Y10876D01*
X12060Y10885D01*
X11740D01*
X11694Y10876D01*
X11655Y10850D01*
X11652Y10845D01*
X10995D01*
Y11195D01*
D02*
G37*
G36*
X14122Y11096D02*
X13926D01*
X13848Y11081D01*
X13783Y11037D01*
X13739Y10972D01*
X13723Y10894D01*
Y10540D01*
X13739Y10462D01*
X13783Y10397D01*
X13848Y10353D01*
X13926Y10337D01*
X14122D01*
X14200Y10353D01*
X14266Y10397D01*
X14309Y10462D01*
X14325Y10540D01*
Y10894D01*
X14309Y10972D01*
X14266Y11037D01*
X14200Y11081D01*
X14122Y11096D01*
D02*
G37*
G36*
X15024D02*
X14976D01*
Y10767D01*
X15227D01*
Y10894D01*
X15211Y10972D01*
X15167Y11037D01*
X15102Y11081D01*
X15024Y11096D01*
D02*
G37*
G36*
X11850Y11235D02*
X11621D01*
Y11134D01*
X11630Y11089D01*
X11655Y11050D01*
X11694Y11024D01*
X11740Y11015D01*
X11850D01*
Y11235D01*
D02*
G37*
G36*
X15772Y11096D02*
X15576D01*
X15498Y11081D01*
X15433Y11037D01*
X15389Y10972D01*
X15373Y10894D01*
Y10540D01*
X15389Y10462D01*
X15433Y10397D01*
X15498Y10353D01*
X15576Y10337D01*
X15772D01*
X15850Y10353D01*
X15915Y10397D01*
X15959Y10462D01*
X15975Y10540D01*
Y10894D01*
X15959Y10972D01*
X15915Y11037D01*
X15850Y11081D01*
X15772Y11096D01*
D02*
G37*
G36*
X14876D02*
X14828D01*
X14750Y11081D01*
X14684Y11037D01*
X14641Y10972D01*
X14625Y10894D01*
Y10767D01*
X14876D01*
Y11096D01*
D02*
G37*
G36*
X10550Y12192D02*
X10497Y12185D01*
X10401Y12145D01*
X10318Y12082D01*
X10255Y11999D01*
X10215Y11903D01*
X10208Y11850D01*
X10550D01*
Y12192D01*
D02*
G37*
G36*
X13374Y13296D02*
X13178D01*
X13100Y13281D01*
X13034Y13237D01*
X12991Y13172D01*
X12986Y13146D01*
X12917D01*
X12829Y13129D01*
X12755Y13079D01*
X12705Y13029D01*
X10922D01*
X10882Y13082D01*
X10799Y13145D01*
X10703Y13185D01*
X10600Y13199D01*
X10497Y13185D01*
X10401Y13145D01*
X10318Y13082D01*
X10255Y12999D01*
X10215Y12903D01*
X10201Y12800D01*
X10215Y12697D01*
X10255Y12601D01*
X10318Y12518D01*
X10401Y12455D01*
X10497Y12415D01*
X10600Y12401D01*
X10703Y12415D01*
X10799Y12455D01*
X10882Y12518D01*
X10922Y12571D01*
X12800D01*
X12888Y12588D01*
X12962Y12638D01*
X13017Y12622D01*
X13034Y12597D01*
X13100Y12553D01*
X13178Y12537D01*
X13374D01*
X13452Y12553D01*
X13517Y12597D01*
X13561Y12662D01*
X13577Y12740D01*
Y13094D01*
X13561Y13172D01*
X13517Y13237D01*
X13452Y13281D01*
X13374Y13296D01*
D02*
G37*
G36*
X10600Y14199D02*
X10497Y14185D01*
X10401Y14145D01*
X10318Y14082D01*
X10255Y13999D01*
X10215Y13903D01*
X10201Y13800D01*
X10215Y13697D01*
X10255Y13601D01*
X10318Y13518D01*
X10401Y13455D01*
X10497Y13415D01*
X10600Y13401D01*
X10703Y13415D01*
X10799Y13455D01*
X10882Y13518D01*
X10922Y13571D01*
X11105D01*
X11188Y13488D01*
X11262Y13438D01*
X11350Y13421D01*
X11520D01*
X11531Y13405D01*
X11569Y13380D01*
X11615Y13371D01*
X11916D01*
X11961Y13380D01*
X12000Y13405D01*
X12026Y13444D01*
X12035Y13490D01*
Y13810D01*
X12026Y13856D01*
X12000Y13895D01*
X11961Y13920D01*
X11916Y13929D01*
X11615D01*
X11569Y13920D01*
X11531Y13895D01*
X11520Y13879D01*
X11445D01*
X11362Y13962D01*
X11288Y14012D01*
X11200Y14029D01*
X10922D01*
X10882Y14082D01*
X10799Y14145D01*
X10703Y14185D01*
X10600Y14199D01*
D02*
G37*
G36*
X14876Y13296D02*
X14828D01*
X14750Y13281D01*
X14684Y13237D01*
X14641Y13172D01*
X14625Y13094D01*
Y12967D01*
X14876D01*
Y13296D01*
D02*
G37*
G36*
X15024D02*
X14976D01*
Y12967D01*
X15227D01*
Y13094D01*
X15211Y13172D01*
X15167Y13237D01*
X15102Y13281D01*
X15024Y13296D01*
D02*
G37*
G36*
X17100Y14074D02*
X16659D01*
X16669Y13995D01*
X16719Y13875D01*
X16798Y13772D01*
X16901Y13692D01*
X17022Y13643D01*
X17100Y13632D01*
Y14074D01*
D02*
G37*
G36*
Y14615D02*
X17022Y14605D01*
X16901Y14555D01*
X16798Y14476D01*
X16719Y14373D01*
X16669Y14253D01*
X16659Y14174D01*
X17100D01*
Y14615D01*
D02*
G37*
G36*
X17200D02*
Y14174D01*
X17642D01*
X17631Y14253D01*
X17582Y14373D01*
X17503Y14476D01*
X17399Y14555D01*
X17279Y14605D01*
X17200Y14615D01*
D02*
G37*
G36*
X17642Y14074D02*
X17200D01*
Y13632D01*
X17279Y13643D01*
X17399Y13692D01*
X17503Y13772D01*
X17582Y13875D01*
X17631Y13995D01*
X17642Y14074D01*
D02*
G37*
G36*
X15389Y14162D02*
X15211D01*
X15138Y14148D01*
X15075Y14106D01*
X15034Y14044D01*
X15028Y14012D01*
X13922D01*
X13916Y14044D01*
X13875Y14106D01*
X13812Y14148D01*
X13739Y14162D01*
X13561D01*
X13488Y14148D01*
X13425Y14106D01*
X13384Y14044D01*
X13378Y14012D01*
X13233D01*
X13145Y13995D01*
X13071Y13945D01*
X13005Y13879D01*
X12680D01*
X12669Y13895D01*
X12631Y13920D01*
X12585Y13929D01*
X12284D01*
X12239Y13920D01*
X12200Y13895D01*
X12174Y13856D01*
X12165Y13810D01*
Y13490D01*
X12174Y13444D01*
X12200Y13405D01*
X12239Y13380D01*
X12284Y13371D01*
X12585D01*
X12631Y13380D01*
X12669Y13405D01*
X12680Y13421D01*
X13100D01*
X13188Y13438D01*
X13262Y13488D01*
X13328Y13554D01*
X13378D01*
X13384Y13522D01*
X13425Y13460D01*
X13488Y13418D01*
X13561Y13404D01*
X13739D01*
X13812Y13418D01*
X13875Y13460D01*
X13916Y13522D01*
X13922Y13554D01*
X15028D01*
X15034Y13522D01*
X15075Y13460D01*
X15138Y13418D01*
X15211Y13404D01*
X15389D01*
X15462Y13418D01*
X15525Y13460D01*
X15566Y13522D01*
X15576Y13571D01*
X15655D01*
X16121Y13105D01*
Y12050D01*
X16138Y11962D01*
X16188Y11888D01*
X16388Y11688D01*
X16462Y11638D01*
X16550Y11621D01*
X16608D01*
X16657Y11617D01*
Y11403D01*
X16321D01*
X15979Y11745D01*
X15905Y11795D01*
X15817Y11812D01*
X15572D01*
X15566Y11844D01*
X15525Y11906D01*
X15462Y11948D01*
X15389Y11962D01*
X15211D01*
X15138Y11948D01*
X15075Y11906D01*
X15034Y11844D01*
X15019Y11770D01*
Y11396D01*
X15034Y11322D01*
X15075Y11260D01*
X15138Y11218D01*
X15211Y11204D01*
X15389D01*
X15462Y11218D01*
X15525Y11260D01*
X15566Y11322D01*
X15572Y11354D01*
X15722D01*
X16064Y11011D01*
X16139Y10962D01*
X16226Y10944D01*
X16657D01*
Y10630D01*
X17644D01*
Y11617D01*
X17380D01*
Y11750D01*
X17362Y11837D01*
X17313Y11912D01*
X17212Y12012D01*
X17138Y12062D01*
X17050Y12079D01*
X16645D01*
X16579Y12145D01*
Y13200D01*
X16562Y13288D01*
X16512Y13362D01*
X15912Y13962D01*
X15838Y14012D01*
X15750Y14029D01*
X15569D01*
X15566Y14044D01*
X15525Y14106D01*
X15462Y14148D01*
X15389Y14162D01*
D02*
G37*
G36*
X17642Y12574D02*
X17200D01*
Y12132D01*
X17279Y12143D01*
X17399Y12192D01*
X17503Y12272D01*
X17582Y12375D01*
X17631Y12495D01*
X17642Y12574D01*
D02*
G37*
G36*
X14122Y13296D02*
X13926D01*
X13848Y13281D01*
X13783Y13237D01*
X13739Y13172D01*
X13723Y13094D01*
Y12740D01*
X13739Y12662D01*
X13783Y12597D01*
X13848Y12553D01*
X13926Y12537D01*
X14122D01*
X14200Y12553D01*
X14266Y12597D01*
X14309Y12662D01*
X14325Y12740D01*
Y13094D01*
X14309Y13172D01*
X14266Y13237D01*
X14200Y13281D01*
X14122Y13296D01*
D02*
G37*
G36*
X10650Y12192D02*
Y11850D01*
X10992D01*
X10985Y11903D01*
X10945Y11999D01*
X10882Y12082D01*
X10799Y12145D01*
X10703Y12185D01*
X10650Y12192D01*
D02*
G37*
G36*
X17100Y12574D02*
X16659D01*
X16669Y12495D01*
X16719Y12375D01*
X16798Y12272D01*
X16901Y12192D01*
X17022Y12143D01*
X17100Y12132D01*
Y12574D01*
D02*
G37*
G36*
X14876Y12867D02*
X14625D01*
Y12740D01*
X14641Y12662D01*
X14684Y12597D01*
X14750Y12553D01*
X14828Y12537D01*
X14876D01*
Y12867D01*
D02*
G37*
G36*
X17100Y13115D02*
X17022Y13105D01*
X16901Y13055D01*
X16798Y12976D01*
X16719Y12873D01*
X16669Y12752D01*
X16659Y12674D01*
X17100D01*
Y13115D01*
D02*
G37*
G36*
X17200D02*
Y12674D01*
X17642D01*
X17631Y12752D01*
X17582Y12873D01*
X17503Y12976D01*
X17399Y13055D01*
X17279Y13105D01*
X17200Y13115D01*
D02*
G37*
G36*
X15227Y12867D02*
X14976D01*
Y12537D01*
X15024D01*
X15102Y12553D01*
X15167Y12597D01*
X15211Y12662D01*
X15227Y12740D01*
Y12867D01*
D02*
G37*
G36*
X15772Y13296D02*
X15576D01*
X15498Y13281D01*
X15433Y13237D01*
X15389Y13172D01*
X15373Y13094D01*
Y12740D01*
X15389Y12662D01*
X15433Y12597D01*
X15498Y12553D01*
X15576Y12537D01*
X15772D01*
X15850Y12553D01*
X15915Y12597D01*
X15959Y12662D01*
X15975Y12740D01*
Y13094D01*
X15959Y13172D01*
X15915Y13237D01*
X15850Y13281D01*
X15772Y13296D01*
D02*
G37*
%LPD*%
D10*
X13650Y13783D02*
D03*
X15300Y11583D02*
D03*
Y13783D02*
D03*
X13650Y11583D02*
D03*
D11*
X14024Y12917D02*
D03*
X13276D02*
D03*
X15674Y10717D02*
D03*
X14926D02*
D03*
X15674Y12917D02*
D03*
X14926D02*
D03*
X14024Y10717D02*
D03*
X13276D02*
D03*
D12*
X11765Y13650D02*
D03*
X12435D02*
D03*
D13*
X11900Y10615D02*
D03*
Y11285D02*
D03*
D14*
X17050Y11850D02*
X17150Y11750D01*
X16550Y11850D02*
X17050D01*
X16350Y12050D02*
X16550Y11850D01*
X16226Y11174D02*
X17150D01*
Y11750D01*
Y11124D02*
Y11174D01*
X15750Y13800D02*
X16350Y13200D01*
Y12050D02*
Y13200D01*
X15317Y13800D02*
X15750D01*
X15300Y13783D02*
X15317Y13800D01*
X10600Y10800D02*
X10785Y10615D01*
X11900D01*
X13174D01*
X13276Y10717D01*
X15300Y11583D02*
X15817D01*
X16226Y11174D01*
X10600Y12800D02*
X12800D01*
X12917Y12917D01*
X13276D01*
X10600Y13800D02*
X11200D01*
X11350Y13650D01*
X11765D01*
X12435D02*
X13100D01*
X13233Y13783D01*
X13650D01*
X15300D01*
D15*
X18800Y10250D02*
X19000D01*
Y10350D01*
X18967Y10383D01*
X18833D01*
X18800Y10350D01*
Y10250D01*
X18867Y10483D02*
Y10550D01*
X18900Y10583D01*
X19000D01*
Y10483D01*
X18967Y10450D01*
X18933Y10483D01*
Y10583D01*
X19000Y10650D02*
Y10717D01*
Y10683D01*
X18800D01*
Y10650D01*
X19000Y10916D02*
Y10850D01*
X18967Y10816D01*
X18900D01*
X18867Y10850D01*
Y10916D01*
X18900Y10950D01*
X18933D01*
Y10816D01*
X19000Y11216D02*
X18800D01*
X18867Y11283D01*
X18800Y11350D01*
X19000D01*
X18867Y11450D02*
Y11516D01*
X18900Y11550D01*
X19000D01*
Y11450D01*
X18967Y11416D01*
X18933Y11450D01*
Y11550D01*
X18833Y11650D02*
X18867D01*
Y11616D01*
Y11683D01*
Y11650D01*
X18967D01*
X19000Y11683D01*
X18833Y11816D02*
X18867D01*
Y11783D01*
Y11849D01*
Y11816D01*
X18967D01*
X19000Y11849D01*
X18800Y11949D02*
X19000D01*
X18900D01*
X18867Y11983D01*
Y12049D01*
X18900Y12083D01*
X19000D01*
Y12249D02*
Y12183D01*
X18967Y12149D01*
X18900D01*
X18867Y12183D01*
Y12249D01*
X18900Y12283D01*
X18933D01*
Y12149D01*
X18867Y12349D02*
X18967D01*
X19000Y12383D01*
X18967Y12416D01*
X19000Y12449D01*
X18967Y12483D01*
X18867D01*
X19000Y12549D02*
Y12649D01*
X18967Y12683D01*
X18933Y12649D01*
Y12583D01*
X18900Y12549D01*
X18867Y12583D01*
Y12683D01*
X19000Y13082D02*
Y12949D01*
X18867Y13082D01*
X18833D01*
X18800Y13049D01*
Y12982D01*
X18833Y12949D01*
Y13149D02*
X18800Y13182D01*
Y13249D01*
X18833Y13282D01*
X18967D01*
X19000Y13249D01*
Y13182D01*
X18967Y13149D01*
X18833D01*
X19000Y13349D02*
Y13416D01*
Y13382D01*
X18800D01*
X18833Y13349D01*
X18800Y13649D02*
Y13516D01*
X18900D01*
X18867Y13582D01*
Y13616D01*
X18900Y13649D01*
X18967D01*
X19000Y13616D01*
Y13549D01*
X18967Y13516D01*
D16*
X17150Y12624D02*
D03*
Y14124D02*
D03*
D17*
Y11124D02*
D03*
D18*
X10600Y10800D02*
D03*
D19*
Y11800D02*
D03*
Y12800D02*
D03*
Y13800D02*
D03*
M02*
